<svg width="106" height="100" viewBox="0 0 106 100" fill="none" xmlns="http://www.w3.org/2000/svg">
<rect width="105.281" height="100" rx="5" fill="#0C1236"/>
<path fill-rule="evenodd" clip-rule="evenodd" d="M51.2258 49.6801H85.8547V49.7917C85.8547 59.0644 82.8388 67.1115 76.6945 73.2528C70.4387 79.5097 61.9485 83.1972 52.5658 83.1972C43.2941 83.1972 35.1399 79.7337 29.1086 73.4764C23.0758 67.3325 19.3894 59.2884 19.3894 50.0152C19.3894 40.7419 23.0753 32.6954 29.1086 26.5525C35.1399 20.2957 43.5171 16.8317 52.5658 16.8317C58.0386 16.8317 63.1775 18.0604 67.6458 20.4082C72.4506 22.864 76.4715 26.2165 79.4864 30.5731L70.2172 37.276C68.2053 34.4841 65.6354 32.3608 62.5085 30.6846C59.3816 29.0084 56.0296 28.2272 52.5667 28.2272C49.7121 28.23 46.887 28.8053 44.2586 29.9191C41.6301 31.0328 39.2516 32.6623 37.2638 34.7116C33.3519 38.6226 30.896 44.0963 30.896 50.0186C30.896 56.1625 33.3519 61.4137 37.2638 65.4357C41.1731 69.3463 46.646 71.8041 52.5663 71.8041C58.5532 71.8066 64.2974 69.4366 68.5407 65.2127C69.7692 63.984 70.7732 62.6424 71.6677 61.3022L51.2258 61.0787V49.6801Z" fill="white"/>
<path d="M57.1333 41.8255H50.694V61.0584H57.1333V41.8255Z" fill="white"/>
<path fill-rule="evenodd" clip-rule="evenodd" d="M50.6955 38.6315H57.1348L54.071 33.3082L50.6955 38.6315Z" fill="white"/>
</svg>
