<svg width="21" height="21" viewBox="0 0 21 21" fill="none" xmlns="http://www.w3.org/2000/svg">
<path d="M10.9375 10.9375C12.3872 10.9375 13.5625 9.76225 13.5625 8.3125C13.5625 6.86275 12.3872 5.6875 10.9375 5.6875C9.48775 5.6875 8.3125 6.86275 8.3125 8.3125C8.3125 9.76225 9.48775 10.9375 10.9375 10.9375Z" stroke="#767676" stroke-linecap="round" stroke-linejoin="round"/>
<path d="M10.9375 1.3125C9.08099 1.3125 7.30051 2.05 5.98775 3.36275C4.675 4.67551 3.9375 6.45598 3.9375 8.3125C3.9375 9.968 4.28925 11.0512 5.25 12.25L10.9375 18.8125L16.625 12.25C17.5858 11.0512 17.9375 9.968 17.9375 8.3125C17.9375 6.45598 17.2 4.67551 15.8872 3.36275C14.5745 2.05 12.794 1.3125 10.9375 1.3125V1.3125Z" stroke="#767676" stroke-linecap="round" stroke-linejoin="round"/>
</svg>
