<svg width="10" height="12" viewBox="0 0 10 12" fill="none" xmlns="http://www.w3.org/2000/svg">
<path d="M4.83334 6.45834C5.73081 6.45834 6.45834 5.73081 6.45834 4.83334C6.45834 3.93588 5.73081 3.20834 4.83334 3.20834C3.93588 3.20834 3.20834 3.93588 3.20834 4.83334C3.20834 5.73081 3.93588 6.45834 4.83334 6.45834Z" stroke="#767676" stroke-linecap="round" stroke-linejoin="round"/>
<path d="M4.83333 0.5C3.68406 0.5 2.58186 0.956546 1.7692 1.7692C0.956546 2.58186 0.5 3.68406 0.5 4.83333C0.5 5.85817 0.71775 6.52875 1.3125 7.27083L4.83333 11.3333L8.35417 7.27083C8.94892 6.52875 9.16667 5.85817 9.16667 4.83333C9.16667 3.68406 8.71012 2.58186 7.89746 1.7692C7.08481 0.956546 5.98261 0.5 4.83333 0.5V0.5Z" stroke="#767676" stroke-linecap="round" stroke-linejoin="round"/>
</svg>
